<svg height="60" stroke-width="0" viewBox="-0.04 -0.1 168.64 158.4" width="60" xmlns="http://www.w3.org/2000/svg"><path d="M113.5 19.8c0 3.7-16.3 21-16.3 38.8 0 2.9.5 5 .5 6.4 0 1.9-48.5 15.4-48.5 54.1 0 11 2.4 12.3 2.4 15.3s-13.3 2.9-21.2 2.9c-17.7 0-23.1-12.5-26.6-12.5-6.4 0-8.7 33.5 25.3 33.5 25.2 0 30.7-12 32.3-12s5.3 10.4 25.4 10.4 32.9-.2 39.8-.2 1.3-10.2-6.1-10.2c-10.4 0-12.4.9-12.4-4.2 0-7.5 5.4-12 5.4-23.6 0-4.9 6.4-3.5 6.4.2 0 12.9 17.9 37.2 23.3 37.2 5.2 0 12 .7 12-5.2 0-9.8-17.7 10.6-17.7-42.4 0-10.5 3.9-18.6 3.9-35.6 0-15.9-3.4-20.2-3.4-23.7 0-3.3 5.8.8 13.3.8 9 0 12.8-8.3 12.8-9.2 3.9 0 4.5-4.1 4.5-7.3 0-3-20-5.9-20-9 0-4.8-8.8-7.9-8.8-9.1 0-1.4 3.9-10.7-.8-10.7-3.1 0-9.4 7.9-11 7.9-.6 0 .3-12.5-2.5-12.5-1.8.1-12 6.8-12 19.9z"/></svg>