<svg height="40" stroke-width="0" viewBox="2 2.2 112.09 98.82" width="73" xmlns="http://www.w3.org/2000/svg"><path d="M48.8 29.7c-3.4-3.6-10-9.5-20-6.8C19 25.5 16 34 15 38.8c-1.4 7.3.7 14.7 4.1 15.5 7 1.6 11.8-5 16.4-6.3 4.7-1.2 12.1 2.1 17.4-2.8 2.7-2.5.3-10.9-4.1-15.5m-2.9-7.5c2.6.9 6.1-2.3 7.4-5.8 1.3-3.6-.1-6.2-2.7-7.1-2.5-1-5.3.1-6.6 3.7-1.3 3.5-.6 8.2 1.9 9.2m-32.2 8.6c-1.7 2.1-6.4 1.1-9.3-1.4C1.5 27 1.4 24 3.2 22s4.7-2.5 7.6-.1c2.8 2.4 4.6 6.8 2.9 8.9m20.6-12.7c3.1-.2 5.4-5.2 5.2-9.5-.2-4.4-2.9-6.5-6-6.4-3.1.2-5.6 2.6-5.3 7 .2 4.4 3 9.1 6.1 8.9m-12.6 3.4c-2.8 1.4-7.3-1.7-9.3-5.7-2-3.9-.8-7.1 2-8.5s6.1-.6 8.1 3.4c2.1 3.9 2 9.4-.8 10.8m79.5 63.8c-1.2-4.9-4-13.2-13.9-15.9s-16.7 3.1-20 6.8c-4.9 5.6-6.8 13-4.1 15.5 5.3 4.8 12.7 1.5 17.4 2.8 4.7 1.2 9.5 7.8 16.4 6.3 3.5-.8 5.6-9.3 4.2-15.5m1.2-8c1.7 2.1 6.4 1.1 9.3-1.4 2.9-2.4 3-5.4 1.2-7.5-1.7-2.1-4.7-2.5-7.6-.1-2.8 2.5-4.6 6.9-2.9 9m-32.2-8.6c-2.6.9-6.1-2.3-7.4-5.8-1.3-3.6.1-6.2 2.7-7.1s5.3.2 6.6 3.7c1.2 3.5.6 8.2-1.9 9.2m24.2-.7c2.8 1.4 7.3-1.7 9.3-5.7 2-3.9.8-7.1-2-8.5s-6.1-.6-8.1 3.4c-2.1 3.9-2 9.4.8 10.8m-12.6-3.4c-3.1-.2-5.4-5.2-5.2-9.5.2-4.4 2.9-6.5 6-6.4 3.1.2 5.6 2.6 5.3 7-.2 4.4-3 9.1-6.1 8.9"/></svg>