<svg height="60" stroke-width="0" viewBox="0.05 0 172.1 116" width="60" xmlns="http://www.w3.org/2000/svg"><path d="M56.7 5.3C55.8 2.4 5.4 9.5 1 44.1c-4 31.2 5.5 41.7 12.3 42.6s17-.1 22.2-39.9C40.6 6.4 57.7 8.2 56.7 5.3zM86.9 0C69.7 0 41.6 13.1 41.6 40.1c0 22.4-5 31.2-5 39.4S39.7 116 87.3 116s48.9-27.9 48.9-37.3c0-5.4-5.7-15.3-5.7-37.7 0-26.8-26.5-41-43.6-41zM52.2 47.2a8.7 8.7 0 1 1 17.41.01 8.7 8.7 0 0 1-17.41-.01zm34.4 66.2c-5 0-9.1-.6-12.1-1.3 6.8-1.5 10.9-6.9 12.7-9.9 1.9 2.9 6.1 8.3 12.2 10.1-3.4.6-7.7 1.1-12.8 1.1zm16.7-3.2c-9.3 0-15.1-10.7-15.1-10.8-.2-.4-.6-.6-1.1-.6s-.9.3-1.1.7c0 .1-4.9 10.8-15 10.8-14.4 0-15.5-11.2-15.5-18.8 0-15.5 26.1-23.3 26.1-61.2 0-10.9-.8-12.1-.8-15.2 0 0-.6-5 5.8-5s5.1 5.3 5.1 5.3c0 3.2-.8 4.6-.8 15.4 0 37.9 28 44.9 28 60.5.1 8.1-2.3 18.9-15.6 18.9zm9.4-54.3a8.7 8.7 0 1 1 .01-17.41 8.7 8.7 0 0 1-.01 17.41zM74.5 84.2c0 3.7 2.6 5.4 4.1 5.4 3.9 0-2.4-4.6 1.8-4.6 6 0 1.5 5.1 5.9 5.1s.2-5.1 6-5.1c3.6 0-1.9 4.3 2.2 4.3 2.1 0 3.8-1.3 3.8-5 0-3.9-3.3-8-11.9-8-8.5 0-11.9 4-11.9 7.9zm-6.7-35.5c0-3-2.5-5.5-5.5-5.5s-5.5 2.5-5.5 5.5 2.5 5.5 5.5 5.5 5.5-2.5 5.5-5.5zm45.5-5.5c-3 0-5.5 2.5-5.5 5.5s2.5 5.5 5.5 5.5 5.5-2.5 5.5-5.5-2.5-5.5-5.5-5.5zm57.9.9c-4.5-34.6-54.8-41.6-55.7-38.7-1 2.9 16.1 1.1 21.3 41.5 5.2 39.8 15.4 40.8 22.2 39.9 6.7-1 16.2-11.5 12.2-42.7z"/></svg>