<svg height="60" stroke-width="0" viewBox="-0.05 0 200.05 200" width="60" xmlns="http://www.w3.org/2000/svg"><path d="M95.4 137.7a9 9 0 0 0-9.1 9.1c0 5 4.1 9.1 9.1 9.1 5.1 0 9.3-4.1 9.3-9.1 0-5.1-4.1-9.1-9.3-9.1zm3.3-97.8c-17.5 0-25.6 12.9-29 18.4l-.3.5c-.7 1.3-2.1 3.6 1.1 5.8l1.9 1.3c2.7 1.8 4.3.6 5.4-.4.4-.4.9-1.1 1.4-2 2.4-3.8 7.4-11.8 20.5-11.8 12.9 0 17.5 9.7 17.5 18.8 0 8.5-6.4 13.7-13.2 19.3-7 5.7-14.1 11.5-14.1 21.1v10.6c0 2.6 1.6 4.4 4 4.4h3.5c2.6 0 4.2-1.7 4.2-4.4v-10.4c0-4.6 4.6-8.3 9.9-12.5 7.8-6.2 17.6-13.9 17.6-28.7-.2-14.4-9.7-30-30.4-30z"/><path d="M100 0C44.9 0 0 44.9 0 100c0 16.3 4.1 32.5 11.8 47L.2 183.2c-.6 1.8-.1 3.7 1.2 5.1s3.2 1.9 5 1.4l34.1-9.3A99.63 99.63 0 0 0 100 200c55.1 0 100-44.9 100-100S155.1 0 100 0zm0 189.8c-20.1 0-39.2-6.6-55.2-19.1-.9-.7-2-1.1-3.2-1.1-.5 0-.9.1-1.4.2l-27.4 7.5 9.3-29.3c.4-1.4.3-2.8-.4-4.1a89.2 89.2 0 0 1-11.5-44c0-49.5 40.3-89.8 89.8-89.8s89.8 40.3 89.8 89.8c0 49.6-40.3 89.9-89.8 89.9z"/></svg>