<svg height="60" stroke-width="0" viewBox="48.8 51 102.4 98.1" width="60" xmlns="http://www.w3.org/2000/svg"><path d="M89.9 51H51.6a2.8 2.8 0 0 0-2.8 2.8v38.3c0 1.5 1.2 2.8 2.8 2.8h18.1c-.2 4.3-.9 9.1-3.2 15.2-2.3 5.9-11.1 13.1-16.3 16.2-.9.5-1.4 1.4-1.4 2.4v17.6c0 .9.5 1.8 1.3 2.3.5.3 1 .5 1.5.5.4 0 .8-.1 1.1-.2 9.1-4 16.7-9.4 22.6-15.9 5.8-6.5 10.2-13.8 13.1-21.6s4.3-19.1 4.3-33.7V53.8c0-1.5-1.2-2.8-2.8-2.8zm-2.8 26.6c0 13.9-1.3 24.6-4 31.8-2.6 7.1-6.7 13.8-12 19.8-4.5 5-10.1 9.3-16.7 12.7v-11.6c4.7-3 14.3-10.5 17.3-18.1a52.2 52.2 0 0 0 3.6-20c0-1.5-1.2-2.8-2.8-2.8H54.4V56.6h32.7zM148.4 51h-38.3a2.8 2.8 0 0 0-2.8 2.8v38.3c0 1.5 1.2 2.8 2.8 2.8h18.1c-.2 4.3-.9 9.1-3.2 15.2-2.3 5.9-11.1 13.1-16.3 16.2-.9.5-1.4 1.4-1.4 2.4v17.6c0 .9.5 1.8 1.3 2.3.5.3 1 .5 1.5.5.4 0 .8-.1 1.1-.2 9.1-4 16.7-9.4 22.6-15.9 5.8-6.5 10.2-13.8 13.1-21.6s4.3-19.1 4.3-33.7V53.8c0-1.5-1.3-2.8-2.8-2.8zm-2.8 26.6c0 13.9-1.3 24.6-4 31.8-2.6 7.1-6.7 13.8-12 19.8-4.5 5-10.1 9.3-16.7 12.7v-11.6c4.7-3 14.3-10.5 17.3-18.1a52.2 52.2 0 0 0 3.6-20c0-1.5-1.2-2.8-2.8-2.8h-18.1V56.6h32.7z"/></svg>