<svg height="60" stroke-width="0" viewBox="7.18 28.24 188.42 131.18" width="60" xmlns="http://www.w3.org/2000/svg"><path d="M20.4 105.49a3.92 3.92 0 0 1-3.72-2.68c-4.15-12.4-1.8-45.28 32.16-62.19 10.33-5.15 20.33-7.75 29.74-7.75 25.4 0 40 18.37 47.02 27.2 1.24 1.56 1.42 4.18 0 5.6-6.22 6.23-14.53 12.1-25.37 17.94-19.32 10.42-39.6 13.94-55.9 16.76-8.82 1.53-16.44 2.84-22.69 4.92a4 4 0 0 1-1.24.2z"/><path d="M189.2 42.52c-6.75-8.8-16.28-14.28-24.86-14.28-5.04 0-12.22 1.8-17.86 10.42-2.94 4.5-4.53 9.12-6.08 13.58-4.01 11.65-8.16 23.69-36.59 39.02-18.18 9.8-36.94 13.06-53.5 15.93-19.81 3.44-36.92 6.4-42.83 20.59a3.93 3.93 0 0 0 .5 3.89 3.88 3.88 0 0 0 3.6 1.5c5.25-.63 12.04.33 19.11 1.71a53.29 53.29 0 0 1-3.07 3.29c-2.98 3.02-6.07 6.15-5.15 10.14.85 3.72 4.73 5.5 7.58 6.5 3.13 1.11 6.6 1.7 10.07 1.7 9.74 0 17.4-4.54 20.8-12.08 13.36 2.26 27.36 2.46 39.59 2.46l12.86-.03c.53.43 1.4 1.29 2.06 1.96 3.95 3.96 10.59 10.6 21.35 10.6 1.02 0 2.07-.06 3.28-.22 5.37-.79 10.6-2.09 12.35-6.18 1.78-4.14-.97-8.03-4.14-12.53-3.78-5.37-8.47-12.02-7.83-20.82 1.54-3.12 2.9-6.47 4.29-9.95 3.77-9.35 7.65-19 16.65-27.58a20.75 20.75 0 0 0 12.79 4.31c3.45 0 6.87-.8 10.16-2.35 4.9-2.3 8.67-7.6 10.34-14.5 2.3-9.5.26-19.61-5.47-27.08zM167.32 60.5a3.92 3.92 0 1 1 0-7.85 3.92 3.92 0 0 1 0 7.85z"/></svg>