<svg aria-label="YouTube" xmlns="http://www.w3.org/2000/svg" viewBox="0 0 24 24"><desc>Walk Fourward on YouTube</desc><path fill="#b00" d="M4.65 0H6.1l.99 3.7L8 0h1.45L7.79 5.5v3.76H6.35V5.51L4.65 0zm6.6 2.37c-1.12 0-1.86.74-1.86 1.84v3.35c0 1.2.62 1.83 1.86 1.83 1.02 0 1.82-.69 1.82-1.83V4.2c0-1.07-.8-1.84-1.82-1.84zm.53 5.13c0 .37-.2.65-.53.65-.36 0-.56-.3-.56-.65V4.32c0-.37.17-.65.53-.65.39 0 .56.27.56.65V7.5zm4.73-5.07v5.19c-.16.19-.5.5-.75.5-.27 0-.34-.18-.34-.45V2.43h-1.27v5.71c0 .68.2 1.22.89 1.22.38 0 .92-.2 1.47-.85v.75h1.27V2.43H16.5zm2.2 13.86c-.45 0-.54.31-.54.76v.66h1.07v-.66c0-.44-.1-.76-.53-.76zm-4.7.04a.93.93 0 0 0-.25.2v4.05c.1.1.19.18.28.23.2.1.49.1.62-.07.07-.09.1-.24.1-.45v-3.36a.82.82 0 0 0-.12-.5c-.15-.19-.42-.2-.63-.1zm4.82-5.2a183 183 0 0 0-13.66 0c-2.82.2-3.15 1.9-3.17 6.37.02 4.47.35 6.17 3.17 6.37a183 183 0 0 0 13.66 0c2.82-.2 3.15-1.9 3.17-6.37-.02-4.47-.35-6.17-3.17-6.37zM6.51 21.82H5.15v-7.54H3.74V13h4.18v1.28H6.5v7.54zm4.84 0h-1.2v-.72c-.23.27-.46.47-.7.6-.65.38-1.55.37-1.55-.95v-5.44h1.21v5c0 .25.06.43.32.43.24 0 .57-.3.71-.49v-4.94h1.21v6.5zm4.66-1.35c0 .8-.3 1.43-1.1 1.43-.45 0-.82-.16-1.15-.58v.5h-1.22V13h1.22v2.84c.27-.33.64-.6 1.07-.6.89 0 1.18.74 1.18 1.62v3.61zm4.47-1.75h-2.31v1.23c0 .49.04.9.53.9.5 0 .54-.34.54-.9v-.45h1.24v.48c0 1.26-.53 2.02-1.81 2.02-1.16 0-1.75-.85-1.75-2.02v-2.92c0-1.13.75-1.91 1.84-1.91 1.16 0 1.72.74 1.72 1.91v1.66z"/></svg>